<?xml version="1.0" encoding="UTF-8" standalone="no"?>
<!-- Created with Fluxer (https://fluxer.umbc.edu) by The Lobo Lab (https://lobolab.umbc.edu) -->

<svg xmlns="http://www.w3.org/2000/svg" width="816" height="1056"><defs><marker id="arrowhead" fill="none" stroke="#00008B" stroke-width="0.2" refX="-1.5" refY="0.5" markerUnits="strokeWidth" markerWidth="3" markerHeight="1" viewBox="0 0 4 1" preserveAspectRatio="none" orient="auto"><path d="M1.5,0.1L0.5,0.5L1.5,0.9M2.5,0.1L1.5,0.5L2.5,0.9M3.5,0.1L2.5,0.5L3.5,0.9"/></marker></defs><defs><marker id="arrowhead_end" fill="none" stroke="#00008B" stroke-width="0.2" refX="5.5" refY="0.5" markerUnits="strokeWidth" markerWidth="3" markerHeight="1" viewBox="0 0 4 1" preserveAspectRatio="none" orient="auto"><path d="M1.5,0.1L0.5,0.5L1.5,0.9M2.5,0.1L1.5,0.5L2.5,0.9M3.5,0.1L2.5,0.5L3.5,0.9"/></marker></defs><defs><marker id="arrowhead_inverse" fill="none" stroke="#00008B" stroke-width="0.2" refX="-1.5" refY="0.5" markerUnits="strokeWidth" markerWidth="3" markerHeight="1" viewBox="0 0 4 1" preserveAspectRatio="none" orient="auto"><path d="M0.5,0.1L1.5,0.5L0.5,0.9M1.5,0.1L2.5,0.5L1.5,0.9M2.5,0.1L3.5,0.5L2.5,0.9"/></marker></defs><defs><marker id="arrowhead_inverse_end" fill="none" stroke="#00008B" stroke-width="0.2" refX="5.5" refY="0.5" markerUnits="strokeWidth" markerWidth="3" markerHeight="1" viewBox="0 0 4 1" preserveAspectRatio="none" orient="auto"><path d="M0.5,0.1L1.5,0.5L0.5,0.9M1.5,0.1L2.5,0.5L1.5,0.9M2.5,0.1L3.5,0.5L2.5,0.9"/></marker></defs><g transform="translate(120.96000000000001 533.46) scale(0.26 0.26)"><path d="M1800,0L1760,0C1700,0,1700,75,1640,75L1600,75" fill="none" stroke-width="15" stroke="#4ca2f9" marker-start="url(#arrowhead)" marker-end="url(#arrowhead_end)"/><path d="M2000,0L1960,0C1900,0,1900,0,1840,0L1800,0" fill="none" stroke-width="15" stroke="#4ca2f9" marker-start="url(#arrowhead)" marker-end="url(#arrowhead_end)"/><path d="M2200,0L2160,0C2100,0,2100,0,2040,0L2000,0" fill="none" stroke-width="15" stroke="#4ca2f9" marker-start="url(#arrowhead)" marker-end="url(#arrowhead_end)"/><path d="M2400,75L2360,75C2300,75,2300,0,2240,0L2200,0" fill="none" stroke-width="15" stroke="#4ca2f9" marker-start="url(#arrowhead)" marker-end="url(#arrowhead_end)"/><path d="M200,75L160,75C100,75,100,75,40,75L0,75" fill="none" stroke-width="15" stroke="#e50098" marker-start="url(#arrowhead)" marker-end="url(#arrowhead_end)"/><path d="M400,75L360,75C300,75,300,75,240,75L200,75" fill="none" stroke-width="15" stroke="#e50098" marker-start="url(#arrowhead)" marker-end="url(#arrowhead_end)"/><path d="M600,75L560,75C500,75,500,75,440,75L400,75" fill="none" stroke-width="15" stroke="#e50098" marker-start="url(#arrowhead)" marker-end="url(#arrowhead_end)"/><path d="M800,75L760,75C700,75,700,75,640,75L600,75" fill="none" stroke-width="15" stroke="#e50098" marker-start="url(#arrowhead)" marker-end="url(#arrowhead_end)"/><path d="M1000,75L960,75C900,75,900,75,840,75L800,75" fill="none" stroke-width="15" stroke="#e50098" marker-start="url(#arrowhead)" marker-end="url(#arrowhead_end)"/><path d="M1200,75L1160,75C1100,75,1100,75,1040,75L1000,75" fill="none" stroke-width="15" stroke="#e50098" marker-start="url(#arrowhead)" marker-end="url(#arrowhead_end)"/><path d="M1400,75L1360,75C1300,75,1300,75,1240,75L1200,75" fill="none" stroke-width="15" stroke="#e50098" marker-start="url(#arrowhead)" marker-end="url(#arrowhead_end)"/><path d="M1600,75L1560,75C1500,75,1500,75,1440,75L1400,75" fill="none" stroke-width="15" stroke="#e50098" marker-start="url(#arrowhead)" marker-end="url(#arrowhead_end)"/><path d="M1800,150L1760,150C1700,150,1700,75,1640,75L1600,75" fill="none" stroke-width="15" stroke="#e50098" marker-start="url(#arrowhead)" marker-end="url(#arrowhead_end)"/><path d="M2000,150L1960,150C1900,150,1900,150,1840,150L1800,150" fill="none" stroke-width="15" stroke="#e50098" marker-start="url(#arrowhead)" marker-end="url(#arrowhead_end)"/><path d="M2200,150L2160,150C2100,150,2100,150,2040,150L2000,150" fill="none" stroke-width="15" stroke="#e50098" marker-start="url(#arrowhead)" marker-end="url(#arrowhead_end)"/><path d="M2400,75L2360,75C2300,75,2300,150,2240,150L2200,150" fill="none" stroke-width="15" stroke="#e50098" marker-start="url(#arrowhead)" marker-end="url(#arrowhead_end)"/><g transform="translate(2400,75)"><title>Biomass SC5 notrace</title><text dy="-21" style="text-anchor: middle; font-family: sans-serif; font-size: 18px;" fill="#006400">BIOMASS_SC5_notrace</text><text dy="35" style="text-anchor: middle; font-family: sans-serif; font-size: 18px;" fill="#006400">9.80</text><circle r="15" fill="#006400"/></g><g transform="translate(2200,150)"><title>H2O</title><text dy="35" style="text-anchor: middle; font-family: sans-serif; font-size: 18px;" fill="#FF8C00">h2o_c</text><text dy="35" style="text-anchor: middle; font-family: sans-serif; font-size: 18px;" fill="#FF8C00"/><circle r="15" fill="#FF8C00"/></g><g transform="translate(2000,150)"><title>H2O transport  mitochondrial</title><text dy="-21" style="text-anchor: middle; font-family: sans-serif; font-size: 18px;" fill="#006400">H2Otm</text><text dy="35" style="text-anchor: middle; font-family: sans-serif; font-size: 18px;" fill="#006400">837</text><circle r="15" fill="#006400"/></g><g transform="translate(1800,150)"><title>H2O</title><text dy="35" style="text-anchor: middle; font-family: sans-serif; font-size: 18px;" fill="#FF8C00">h2o_m</text><text dy="35" style="text-anchor: middle; font-family: sans-serif; font-size: 18px;" fill="#FF8C00"/><circle r="15" fill="#FF8C00"/></g><g transform="translate(1600,75)"><title>ATP synthase  mitochondrial</title><text dy="-21" style="text-anchor: middle; font-family: sans-serif; font-size: 18px;" fill="#006400">ATPS3m</text><text dy="35" style="text-anchor: middle; font-family: sans-serif; font-size: 18px;" fill="#006400">518</text><circle r="15" fill="#006400"/></g><g transform="translate(1400,75)"><title>H+</title><text dy="35" style="text-anchor: middle; font-family: sans-serif; font-size: 18px;" fill="#FF8C00">h_c</text><text dy="35" style="text-anchor: middle; font-family: sans-serif; font-size: 18px;" fill="#FF8C00"/><circle r="15" fill="#FF8C00"/></g><g transform="translate(1200,75)"><title>Cytochrome c oxidase  mitochondrial</title><text dy="-21" style="text-anchor: middle; font-family: sans-serif; font-size: 18px;" fill="#006400">CYOOm</text><text dy="35" style="text-anchor: middle; font-family: sans-serif; font-size: 18px;" fill="#006400">240</text><circle r="15" fill="#006400"/></g><g transform="translate(1000,75)"><title>H+</title><text dy="35" style="text-anchor: middle; font-family: sans-serif; font-size: 18px;" fill="#FF8C00">h_m</text><text dy="35" style="text-anchor: middle; font-family: sans-serif; font-size: 18px;" fill="#FF8C00"/><circle r="15" fill="#FF8C00"/></g><g transform="translate(800,75)"><title>Phosphate transporter  mitochondrial</title><text dy="-21" style="text-anchor: middle; font-family: sans-serif; font-size: 18px;" fill="#006400">PIt2m</text><text dy="35" style="text-anchor: middle; font-family: sans-serif; font-size: 18px;" fill="#006400">525</text><circle r="15" fill="#006400"/></g><g transform="translate(600,75)"><title>Phosphate</title><text dy="35" style="text-anchor: middle; font-family: sans-serif; font-size: 18px;" fill="#FF8C00">pi_c</text><text dy="35" style="text-anchor: middle; font-family: sans-serif; font-size: 18px;" fill="#FF8C00"/><circle r="15" fill="#FF8C00"/></g><g transform="translate(400,75)"><title>Inorganic diphosphatase</title><text dy="-21" style="text-anchor: middle; font-family: sans-serif; font-size: 18px;" fill="#006400">PPA</text><text dy="35" style="text-anchor: middle; font-family: sans-serif; font-size: 18px;" fill="#006400">39.3</text><circle r="15" fill="#006400"/></g><g transform="translate(200,75)"><title>Diphosphate</title><text dy="35" style="text-anchor: middle; font-family: sans-serif; font-size: 18px;" fill="#FF8C00">ppi_c</text><text dy="35" style="text-anchor: middle; font-family: sans-serif; font-size: 18px;" fill="#FF8C00"/><circle r="15" fill="#FF8C00"/></g><g transform="translate(0,75)"><title>Acetyl-CoA synthetase</title><text dy="-21" style="text-anchor: middle; font-family: sans-serif; font-size: 18px;" fill="#006400">ACS</text><text dy="35" style="text-anchor: middle; font-family: sans-serif; font-size: 18px;" fill="#006400">5.01</text><circle r="15" fill="#006400"/></g><g transform="translate(2200,0)"><title>ATP</title><text dy="35" style="text-anchor: middle; font-family: sans-serif; font-size: 18px;" fill="#FF8C00">atp_c</text><text dy="35" style="text-anchor: middle; font-family: sans-serif; font-size: 18px;" fill="#FF8C00"/><circle r="15" fill="#FF8C00"/></g><g transform="translate(2000,0)"><title>ADPATP transporter  mitochondrial</title><text dy="-21" style="text-anchor: middle; font-family: sans-serif; font-size: 18px;" fill="#006400">ATPtm_H</text><text dy="35" style="text-anchor: middle; font-family: sans-serif; font-size: 18px;" fill="#006400">589</text><circle r="15" fill="#006400"/></g><g transform="translate(1800,0)"><title>ATP</title><text dy="35" style="text-anchor: middle; font-family: sans-serif; font-size: 18px;" fill="#FF8C00">atp_m</text><text dy="35" style="text-anchor: middle; font-family: sans-serif; font-size: 18px;" fill="#FF8C00"/><circle r="15" fill="#FF8C00"/></g></g></svg>